<svg width="181" height="41" viewBox="0 0 181 41" fill="none" xmlns="http://www.w3.org/2000/svg">
<path d="M5.22949 16.3428C5.22949 14.9463 5.33691 13.6328 5.55176 12.4023C5.77637 11.1719 6.07422 10.0342 6.44531 8.98926C6.81641 7.93457 7.24121 6.97266 7.71973 6.10352C8.20801 5.23438 8.71582 4.46289 9.24316 3.78906C9.78027 3.11523 10.3174 2.53906 10.8545 2.06055C11.3916 1.58203 11.9043 1.20605 12.3926 0.932617L12.9639 2.71973C12.3584 3.17871 11.7529 3.80371 11.1475 4.59473C10.5518 5.38574 10.0146 6.34766 9.53613 7.48047C9.06738 8.60352 8.68164 9.90234 8.37891 11.377C8.08594 12.8418 7.93945 14.4873 7.93945 16.3135V16.5186C7.93945 18.3447 8.08594 19.9951 8.37891 21.4697C8.68164 22.9443 9.06738 24.248 9.53613 25.3809C10.0146 26.5137 10.5518 27.4805 11.1475 28.2812C11.7529 29.0918 12.3584 29.7412 12.9639 30.2295L12.3926 31.8848C11.9043 31.6113 11.3867 31.2354 10.8398 30.7568C10.3027 30.2881 9.76562 29.7119 9.22852 29.0283C8.70117 28.3545 8.19336 27.583 7.70508 26.7139C7.22656 25.8545 6.80176 24.9023 6.43066 23.8574C6.06934 22.8027 5.77637 21.6602 5.55176 20.4297C5.33691 19.1992 5.22949 17.8857 5.22949 16.4893V16.3428ZM23.2471 16.3428C23.2471 14.9463 23.3545 13.6328 23.5693 12.4023C23.7939 11.1719 24.0918 10.0342 24.4629 8.98926C24.834 7.93457 25.2588 6.97266 25.7373 6.10352C26.2256 5.23438 26.7334 4.46289 27.2607 3.78906C27.7979 3.11523 28.335 2.53906 28.8721 2.06055C29.4092 1.58203 29.9219 1.20605 30.4102 0.932617L30.9814 2.71973C30.376 3.17871 29.7705 3.80371 29.165 4.59473C28.5693 5.38574 28.0322 6.34766 27.5537 7.48047C27.085 8.60352 26.6992 9.90234 26.3965 11.377C26.1035 12.8418 25.957 14.4873 25.957 16.3135V16.5186C25.957 18.3447 26.1035 19.9951 26.3965 21.4697C26.6992 22.9443 27.085 24.248 27.5537 25.3809C28.0322 26.5137 28.5693 27.4805 29.165 28.2812C29.7705 29.0918 30.376 29.7412 30.9814 30.2295L30.4102 31.8848C29.9219 31.6113 29.4043 31.2354 28.8574 30.7568C28.3203 30.2881 27.7832 29.7119 27.2461 29.0283C26.7188 28.3545 26.2109 27.583 25.7227 26.7139C25.2441 25.8545 24.8193 24.9023 24.4482 23.8574C24.0869 22.8027 23.7939 21.6602 23.5693 20.4297C23.3545 19.1992 23.2471 17.8857 23.2471 16.4893V16.3428Z" fill="#56CCF2"/>
<path d="M37.9248 25V3.67188H45.0879C46.25 3.67188 47.3047 3.78906 48.252 4.02344C49.209 4.25781 50.0244 4.61426 50.6982 5.09277C51.3721 5.57129 51.8896 6.17676 52.251 6.90918C52.6221 7.6416 52.8076 8.50586 52.8076 9.50195C52.7979 10.498 52.5293 11.3916 52.002 12.1826C51.4844 12.9736 50.7178 13.5742 49.7021 13.9844C50.3174 14.1406 50.8496 14.375 51.2988 14.6875C51.748 15 52.1191 15.3711 52.4121 15.8008C52.7148 16.2207 52.9346 16.6846 53.0713 17.1924C53.2178 17.6904 53.291 18.208 53.291 18.7451C53.291 19.7705 53.1152 20.6738 52.7637 21.4551C52.4121 22.2363 51.9092 22.8906 51.2549 23.418C50.6006 23.9453 49.8047 24.3408 48.8672 24.6045C47.9297 24.8682 46.875 25 45.7031 25H37.9248ZM42.0557 15.5957V21.6748H45.7178C46.8408 21.665 47.6953 21.3916 48.2812 20.8545C48.877 20.3076 49.1748 19.5947 49.1748 18.7158C49.1846 17.7393 48.9209 16.9775 48.3838 16.4307C47.8467 15.8838 47.0166 15.6055 45.8936 15.5957H42.0557ZM42.0557 12.6221H45.1172C46.2598 12.6123 47.1387 12.373 47.7539 11.9043C48.3691 11.4355 48.6816 10.7471 48.6914 9.83887C48.6914 8.84277 48.3838 8.12988 47.7686 7.7002C47.1533 7.26074 46.2646 7.03613 45.1025 7.02637H42.0557V12.6221ZM67.5 8.85742C68.1152 8.85742 68.6816 8.90137 69.1992 8.98926C69.7266 9.06738 70.1514 9.15527 70.4736 9.25293L69.873 13.3105C69.3359 13.1836 68.7842 13.0908 68.2178 13.0322C67.6611 12.9639 67.1289 12.9297 66.6211 12.9297C65.4785 12.9297 64.5605 13.1494 63.8672 13.5889C63.1836 14.0283 62.6709 14.6582 62.3291 15.4785V25H58.2568V9.15039H62.0508L62.2412 11.7432C62.8857 10.8447 63.6572 10.1416 64.5557 9.63379C65.4541 9.11621 66.4355 8.85742 67.5 8.85742ZM84.0381 25C83.9404 24.8047 83.8574 24.5801 83.7891 24.3262C83.7207 24.0723 83.6621 23.8037 83.6133 23.5205C83.3887 23.7646 83.1299 23.9941 82.8369 24.209C82.5439 24.4238 82.2168 24.6143 81.8555 24.7803C81.5039 24.9365 81.1133 25.0586 80.6836 25.1465C80.2539 25.2441 79.79 25.293 79.292 25.293C78.4814 25.293 77.7344 25.1758 77.0508 24.9414C76.377 24.707 75.7959 24.3799 75.3076 23.96C74.8193 23.54 74.4385 23.042 74.165 22.4658C73.8916 21.8799 73.7549 21.2451 73.7549 20.5615C73.7549 18.8916 74.375 17.6025 75.6152 16.6943C76.8652 15.7764 78.7256 15.3174 81.1963 15.3174H83.4668V14.3799C83.4668 13.6182 83.2178 13.0176 82.7197 12.5781C82.2217 12.1289 81.5039 11.9043 80.5664 11.9043C79.7363 11.9043 79.1309 12.085 78.75 12.4463C78.3691 12.7979 78.1787 13.2715 78.1787 13.8672H74.1064C74.1064 13.1934 74.2529 12.5537 74.5459 11.9482C74.8486 11.3428 75.2832 10.8105 75.8496 10.3516C76.4258 9.89258 77.124 9.53125 77.9443 9.26758C78.7744 8.99414 79.7217 8.85742 80.7861 8.85742C81.7432 8.85742 82.6318 8.97461 83.4521 9.20898C84.2822 9.44336 85 9.79004 85.6055 10.249C86.2109 10.708 86.6846 11.2891 87.0264 11.9922C87.3682 12.6855 87.5391 13.4912 87.5391 14.4092V21.2061C87.5391 22.0557 87.5928 22.7588 87.7002 23.3154C87.8076 23.8721 87.9639 24.3506 88.1689 24.751V25H84.0381ZM80.1562 22.1436C80.5664 22.1436 80.9473 22.0947 81.2988 21.9971C81.6504 21.8994 81.9678 21.7725 82.251 21.6162C82.5342 21.46 82.7783 21.2842 82.9834 21.0889C83.1885 20.8838 83.3496 20.6787 83.4668 20.4736V17.749H81.3867C80.752 17.749 80.21 17.8125 79.7607 17.9395C79.3115 18.0566 78.9453 18.2275 78.6621 18.4521C78.3789 18.667 78.1689 18.9307 78.0322 19.2432C77.8955 19.5459 77.8271 19.8779 77.8271 20.2393C77.8271 20.7861 78.0176 21.2402 78.3984 21.6016C78.7891 21.9629 79.375 22.1436 80.1562 22.1436ZM99.1699 22.041C99.5703 22.041 99.9512 21.9824 100.312 21.8652C100.674 21.748 100.991 21.582 101.265 21.3672C101.538 21.1523 101.748 20.8936 101.895 20.5908C102.051 20.2881 102.119 19.9512 102.1 19.5801H105.938C105.957 20.4004 105.786 21.1621 105.425 21.8652C105.073 22.5684 104.59 23.1738 103.975 23.6816C103.359 24.1895 102.642 24.5898 101.821 24.8828C101.011 25.166 100.151 25.3076 99.2432 25.3076C98.0127 25.3076 96.9336 25.1025 96.0059 24.6924C95.0781 24.2725 94.3018 23.7012 93.6768 22.9785C93.0615 22.2559 92.5928 21.4111 92.2705 20.4443C91.958 19.4678 91.8018 18.4229 91.8018 17.3096V16.8701C91.8018 15.7568 91.958 14.7168 92.2705 13.75C92.583 12.7734 93.0518 11.9238 93.6768 11.2012C94.3018 10.4785 95.0732 9.90723 95.9912 9.4873C96.9189 9.06738 97.9932 8.85742 99.2139 8.85742C100.19 8.85742 101.094 9.00391 101.924 9.29688C102.754 9.58984 103.467 10.0049 104.062 10.542C104.668 11.0693 105.137 11.7139 105.469 12.4756C105.801 13.2275 105.957 14.0723 105.938 15.0098H102.1C102.119 14.6191 102.061 14.248 101.924 13.8965C101.787 13.5449 101.587 13.2422 101.323 12.9883C101.06 12.7344 100.742 12.5342 100.371 12.3877C100 12.2314 99.5947 12.1533 99.1553 12.1533C98.5107 12.1533 97.9785 12.2852 97.5586 12.5488C97.1387 12.8125 96.8018 13.1641 96.5479 13.6035C96.3037 14.043 96.1279 14.5459 96.0205 15.1123C95.9229 15.6787 95.874 16.2646 95.874 16.8701V17.3096C95.874 17.9248 95.9229 18.5205 96.0205 19.0967C96.1182 19.6631 96.2891 20.166 96.5332 20.6055C96.7871 21.0352 97.124 21.3818 97.5439 21.6455C97.9736 21.9092 98.5156 22.041 99.1699 22.041ZM116.133 18.4521L114.287 20.166V25H110.215V2.5H114.287V15.3613L115.518 13.9551L119.897 9.15039H124.79L118.813 15.7568L125.625 25H120.63L116.133 18.4521ZM135.879 25.293C134.658 25.293 133.55 25.0928 132.554 24.6924C131.558 24.292 130.703 23.75 129.99 23.0664C129.277 22.373 128.726 21.5625 128.335 20.6348C127.954 19.6973 127.764 18.6963 127.764 17.6318V17.0459C127.764 15.835 127.954 14.7314 128.335 13.7354C128.716 12.7295 129.248 11.8652 129.932 11.1426C130.615 10.4199 131.426 9.8584 132.363 9.45801C133.301 9.05762 134.321 8.85742 135.425 8.85742C136.567 8.85742 137.583 9.04785 138.472 9.42871C139.37 9.7998 140.127 10.3271 140.742 11.0107C141.367 11.6943 141.841 12.5195 142.163 13.4863C142.485 14.4434 142.646 15.5029 142.646 16.665V18.3936H131.895C131.973 18.9307 132.129 19.4238 132.363 19.873C132.607 20.3125 132.915 20.6934 133.286 21.0156C133.657 21.3379 134.082 21.5869 134.561 21.7627C135.039 21.9385 135.562 22.0264 136.128 22.0264C136.528 22.0264 136.924 21.9873 137.314 21.9092C137.715 21.8311 138.096 21.7188 138.457 21.5723C138.818 21.416 139.155 21.2256 139.468 21.001C139.78 20.7764 140.054 20.5127 140.288 20.21L142.324 22.4072C142.07 22.7686 141.738 23.125 141.328 23.4766C140.928 23.8184 140.449 24.126 139.893 24.3994C139.346 24.6631 138.735 24.8779 138.062 25.0439C137.388 25.21 136.66 25.293 135.879 25.293ZM135.396 12.1533C134.937 12.1533 134.517 12.2363 134.136 12.4023C133.755 12.5586 133.418 12.7881 133.125 13.0908C132.842 13.3936 132.603 13.7549 132.407 14.1748C132.212 14.5947 132.065 15.0635 131.968 15.5811H138.647V15.2588C138.628 14.8291 138.545 14.4238 138.398 14.043C138.252 13.6621 138.042 13.335 137.769 13.0615C137.495 12.7783 137.158 12.5586 136.758 12.4023C136.367 12.2363 135.913 12.1533 135.396 12.1533ZM153.677 5.26855V9.15039H159.595V12.1533H153.677V18.9648C153.677 19.541 153.74 20.0244 153.867 20.415C154.004 20.7959 154.194 21.1035 154.438 21.3379C154.683 21.5625 154.976 21.7236 155.317 21.8213C155.669 21.9189 156.06 21.9678 156.489 21.9678C156.802 21.9678 157.119 21.9531 157.441 21.9238C157.773 21.8945 158.086 21.8604 158.379 21.8213C158.682 21.7725 158.96 21.7236 159.214 21.6748C159.478 21.626 159.702 21.5771 159.888 21.5283L160.283 24.3262C160 24.4922 159.668 24.6387 159.287 24.7656C158.906 24.8828 158.501 24.9805 158.071 25.0586C157.642 25.1367 157.192 25.1953 156.724 25.2344C156.265 25.2832 155.811 25.3076 155.361 25.3076C154.492 25.3076 153.701 25.1953 152.988 24.9707C152.285 24.7363 151.68 24.3799 151.172 23.9014C150.674 23.4131 150.288 22.7979 150.015 22.0557C149.741 21.3037 149.604 20.4053 149.604 19.3604V12.1533H145.986V9.15039H149.604V5.26855H153.677ZM174.448 20.6494C174.448 20.4053 174.39 20.1904 174.272 20.0049C174.165 19.8193 173.965 19.6484 173.672 19.4922C173.389 19.3262 173.008 19.1748 172.529 19.0381C172.051 18.9014 171.445 18.7646 170.713 18.6279C169.785 18.4424 168.936 18.2129 168.164 17.9395C167.402 17.6562 166.748 17.3193 166.201 16.9287C165.654 16.5283 165.225 16.0693 164.912 15.5518C164.609 15.0342 164.458 14.4385 164.458 13.7646C164.458 13.1104 164.614 12.4854 164.927 11.8896C165.239 11.2939 165.688 10.7715 166.274 10.3223C166.86 9.87305 167.573 9.5166 168.413 9.25293C169.253 8.98926 170.2 8.85742 171.255 8.85742C172.358 8.85742 173.35 8.98926 174.229 9.25293C175.107 9.50684 175.85 9.86328 176.455 10.3223C177.07 10.7715 177.539 11.3086 177.861 11.9336C178.184 12.5586 178.345 13.2373 178.345 13.9697H174.272C174.272 13.3545 174.023 12.8418 173.525 12.4316C173.027 12.0117 172.271 11.8018 171.255 11.8018C170.308 11.8018 169.59 11.9727 169.102 12.3145C168.623 12.6562 168.384 13.0762 168.384 13.5742C168.384 13.8086 168.433 14.0283 168.53 14.2334C168.628 14.4287 168.799 14.6094 169.043 14.7754C169.297 14.9316 169.639 15.0781 170.068 15.2148C170.498 15.3418 171.045 15.4541 171.709 15.5518C172.666 15.708 173.555 15.9082 174.375 16.1523C175.195 16.3965 175.903 16.7139 176.499 17.1045C177.095 17.4854 177.559 17.9541 177.891 18.5107C178.232 19.0576 178.403 19.7119 178.403 20.4736C178.403 21.1768 178.232 21.8262 177.891 22.4219C177.559 23.0078 177.08 23.5156 176.455 23.9453C175.84 24.375 175.093 24.7119 174.214 24.9561C173.335 25.1904 172.354 25.3076 171.27 25.3076C170.078 25.3076 169.023 25.1514 168.105 24.8389C167.197 24.5264 166.436 24.1211 165.82 23.623C165.205 23.1152 164.736 22.5439 164.414 21.9092C164.102 21.2646 163.945 20.6201 163.945 19.9756H167.827C167.856 20.4053 167.974 20.7764 168.179 21.0889C168.384 21.3916 168.647 21.6406 168.97 21.8359C169.292 22.0215 169.658 22.1582 170.068 22.2461C170.488 22.334 170.918 22.3779 171.357 22.3779C172.363 22.3779 173.13 22.2168 173.657 21.8945C174.185 21.5723 174.448 21.1572 174.448 20.6494Z" fill="black"/>
<path d="M39.998 39.0801H43.3438V40H38.9199V31.4688H39.998V39.0801ZM46.9461 40H45.8738V31.4688H46.9461V40ZM53.7535 37.8438C53.7535 37.418 53.6383 37.0918 53.4078 36.8652C53.1773 36.6387 52.7613 36.418 52.1598 36.2031C51.5582 35.9883 51.0973 35.7637 50.777 35.5293C50.4605 35.291 50.2223 35.0215 50.0621 34.7207C49.9059 34.416 49.8277 34.0684 49.8277 33.6777C49.8277 33.002 50.0523 32.4453 50.5016 32.0078C50.9547 31.5703 51.5465 31.3516 52.277 31.3516C52.777 31.3516 53.2223 31.4648 53.6129 31.6914C54.0035 31.9141 54.3043 32.2246 54.5152 32.623C54.7262 33.0215 54.8316 33.459 54.8316 33.9355H53.7535C53.7535 33.4082 53.6266 33 53.3727 32.7109C53.1187 32.4219 52.7535 32.2773 52.277 32.2773C51.8434 32.2773 51.5074 32.3984 51.2691 32.6406C51.0309 32.8828 50.9117 33.2227 50.9117 33.6602C50.9117 34.0195 51.0406 34.3203 51.2984 34.5625C51.5562 34.8047 51.9547 35.0215 52.4937 35.2129C53.3336 35.4902 53.9332 35.832 54.2926 36.2383C54.6559 36.6445 54.8375 37.1758 54.8375 37.832C54.8375 38.5234 54.6129 39.0781 54.1637 39.4961C53.7145 39.9102 53.1031 40.1172 52.3297 40.1172C51.8336 40.1172 51.3746 40.0098 50.9527 39.7949C50.5348 39.5762 50.2047 39.2715 49.9625 38.8809C49.7242 38.4863 49.6051 38.0352 49.6051 37.5273H50.6832C50.6832 38.0547 50.8297 38.4648 51.1227 38.7578C51.4195 39.0508 51.8219 39.1973 52.3297 39.1973C52.8023 39.1973 53.1578 39.0762 53.3961 38.834C53.6344 38.5918 53.7535 38.2617 53.7535 37.8438ZM58.5219 36.6602V40H57.4496V31.4688H60.1684C60.9613 31.4688 61.5844 31.707 62.0375 32.1836C62.4906 32.6562 62.7172 33.2871 62.7172 34.0762C62.7172 34.8965 62.5004 35.5293 62.0668 35.9746C61.6371 36.416 61.0297 36.6445 60.2445 36.6602H58.5219ZM58.5219 35.7402H60.1684C60.6449 35.7402 61.0102 35.5977 61.2641 35.3125C61.518 35.0273 61.6449 34.6191 61.6449 34.0879C61.6449 33.5762 61.5141 33.166 61.2523 32.8574C60.9906 32.5488 60.6313 32.3945 60.1742 32.3945H58.5219V35.7402ZM74.6094 37.293C74.5625 38.207 74.3047 38.9062 73.8359 39.3906C73.3711 39.875 72.7129 40.1172 71.8613 40.1172C71.0059 40.1172 70.3262 39.793 69.8223 39.1445C69.3184 38.4922 69.0664 37.6094 69.0664 36.4961V34.9492C69.0664 33.8398 69.3242 32.9629 69.8398 32.3184C70.3594 31.6738 71.0664 31.3516 71.9609 31.3516C72.7852 31.3516 73.4219 31.5996 73.8711 32.0957C74.3242 32.5879 74.5703 33.293 74.6094 34.2109H73.5254C73.4785 33.5156 73.332 33.0195 73.0859 32.7227C72.8398 32.4258 72.4648 32.2773 71.9609 32.2773C71.3789 32.2773 70.9316 32.5059 70.6191 32.9629C70.3066 33.416 70.1504 34.082 70.1504 34.9609V36.5254C70.1504 37.3887 70.2949 38.0508 70.584 38.5117C70.877 38.9727 71.3027 39.2031 71.8613 39.2031C72.4199 39.2031 72.8223 39.0645 73.0684 38.7871C73.3145 38.5098 73.4668 38.0117 73.5254 37.293H74.6094ZM82.8172 36.4844C82.8172 37.6484 82.5691 38.5449 82.073 39.1738C81.577 39.8027 80.8719 40.1172 79.9578 40.1172C79.0789 40.1172 78.3836 39.8125 77.8719 39.2031C77.3641 38.5898 77.1004 37.7246 77.0809 36.6074V35.002C77.0809 33.8613 77.3328 32.9688 77.8367 32.3242C78.3406 31.6758 79.0438 31.3516 79.9461 31.3516C80.8445 31.3516 81.5438 31.6621 82.0438 32.2832C82.5477 32.9004 82.8055 33.7832 82.8172 34.9316V36.4844ZM81.7449 34.9902C81.7449 34.0879 81.5965 33.418 81.2996 32.9805C81.0066 32.5391 80.5555 32.3184 79.9461 32.3184C79.3563 32.3184 78.909 32.541 78.6043 32.9863C78.3035 33.4316 78.1512 34.0879 78.1473 34.9551V36.4844C78.1473 37.3555 78.2977 38.0195 78.5984 38.4766C78.9031 38.9336 79.3563 39.1621 79.9578 39.1621C80.5594 39.1621 81.0047 38.9512 81.2938 38.5293C81.5828 38.1074 81.7332 37.4609 81.7449 36.5898V34.9902ZM85.6754 40V31.4688H87.7086C88.7047 31.4688 89.4781 31.7812 90.0289 32.4062C90.5797 33.0273 90.8551 33.9023 90.8551 35.0312V36.4609C90.8551 37.5898 90.5758 38.4629 90.0172 39.0801C89.4586 39.6934 88.648 40 87.5855 40H85.6754ZM86.7477 32.3945V39.0801H87.609C88.3629 39.0801 88.9137 38.8652 89.2613 38.4355C89.609 38.002 89.7867 37.3613 89.7945 36.5137V35.002C89.7945 34.1035 89.6207 33.4453 89.273 33.0273C88.9293 32.6055 88.4078 32.3945 87.7086 32.3945H86.7477ZM94.85 40H93.7777V31.4688H94.85V40ZM103.503 40H102.425L99.009 33.4258V40H97.9309V31.4688H99.009L102.437 38.0723V31.4688H103.503V40ZM111.898 38.9395L111.711 39.1738C111.172 39.8027 110.383 40.1172 109.344 40.1172C108.422 40.1172 107.697 39.8125 107.17 39.2031C106.646 38.5898 106.379 37.7246 106.367 36.6074V34.9316C106.367 33.7363 106.605 32.8418 107.082 32.248C107.562 31.6504 108.279 31.3516 109.232 31.3516C110.045 31.3516 110.68 31.5781 111.137 32.0312C111.598 32.4844 111.852 33.1309 111.898 33.9707H110.826C110.783 33.4395 110.635 33.0254 110.381 32.7285C110.131 32.4277 109.75 32.2773 109.238 32.2773C108.625 32.2773 108.176 32.4785 107.891 32.8809C107.605 33.2793 107.457 33.918 107.445 34.7969V36.5371C107.445 37.3965 107.609 38.0566 107.938 38.5176C108.266 38.9746 108.736 39.2031 109.35 39.2031C109.928 39.2031 110.367 39.0625 110.668 38.7812L110.826 38.6348V36.666H109.268V35.752H111.898V38.9395ZM122.531 37.8438C122.531 37.418 122.416 37.0918 122.185 36.8652C121.955 36.6387 121.539 36.418 120.937 36.2031C120.336 35.9883 119.875 35.7637 119.554 35.5293C119.238 35.291 119 35.0215 118.839 34.7207C118.683 34.416 118.605 34.0684 118.605 33.6777C118.605 33.002 118.83 32.4453 119.279 32.0078C119.732 31.5703 120.324 31.3516 121.054 31.3516C121.554 31.3516 122 31.4648 122.39 31.6914C122.781 31.9141 123.082 32.2246 123.293 32.623C123.504 33.0215 123.609 33.459 123.609 33.9355H122.531C122.531 33.4082 122.404 33 122.15 32.7109C121.896 32.4219 121.531 32.2773 121.054 32.2773C120.621 32.2773 120.285 32.3984 120.046 32.6406C119.808 32.8828 119.689 33.2227 119.689 33.6602C119.689 34.0195 119.818 34.3203 120.076 34.5625C120.334 34.8047 120.732 35.0215 121.271 35.2129C122.111 35.4902 122.711 35.832 123.07 36.2383C123.433 36.6445 123.615 37.1758 123.615 37.832C123.615 38.5234 123.39 39.0781 122.941 39.4961C122.492 39.9102 121.88 40.1172 121.107 40.1172C120.611 40.1172 120.152 40.0098 119.73 39.7949C119.312 39.5762 118.982 39.2715 118.74 38.8809C118.502 38.4863 118.382 38.0352 118.382 37.5273H119.461C119.461 38.0547 119.607 38.4648 119.9 38.7578C120.197 39.0508 120.599 39.1973 121.107 39.1973C121.58 39.1973 121.935 39.0762 122.173 38.834C122.412 38.5918 122.531 38.2617 122.531 37.8438ZM131.577 37.293C131.53 38.207 131.272 38.9062 130.803 39.3906C130.338 39.875 129.68 40.1172 128.829 40.1172C127.973 40.1172 127.293 39.793 126.789 39.1445C126.286 38.4922 126.034 37.6094 126.034 36.4961V34.9492C126.034 33.8398 126.291 32.9629 126.807 32.3184C127.327 31.6738 128.034 31.3516 128.928 31.3516C129.752 31.3516 130.389 31.5996 130.838 32.0957C131.291 32.5879 131.537 33.293 131.577 34.2109H130.493C130.446 33.5156 130.299 33.0195 130.053 32.7227C129.807 32.4258 129.432 32.2773 128.928 32.2773C128.346 32.2773 127.899 32.5059 127.586 32.9629C127.274 33.416 127.118 34.082 127.118 34.9609V36.5254C127.118 37.3887 127.262 38.0508 127.551 38.5117C127.844 38.9727 128.27 39.2031 128.829 39.2031C129.387 39.2031 129.789 39.0645 130.036 38.7871C130.282 38.5098 130.434 38.0117 130.493 37.293H131.577ZM139.82 40H138.741V36.0566H135.308V40H134.236V31.4688H135.308V35.1367H138.741V31.4688H139.82V40ZM148.426 36.4844C148.426 37.6484 148.178 38.5449 147.682 39.1738C147.186 39.8027 146.48 40.1172 145.566 40.1172C144.688 40.1172 143.992 39.8125 143.48 39.2031C142.973 38.5898 142.709 37.7246 142.689 36.6074V35.002C142.689 33.8613 142.941 32.9688 143.445 32.3242C143.949 31.6758 144.652 31.3516 145.555 31.3516C146.453 31.3516 147.152 31.6621 147.652 32.2832C148.156 32.9004 148.414 33.7832 148.426 34.9316V36.4844ZM147.354 34.9902C147.354 34.0879 147.205 33.418 146.908 32.9805C146.615 32.5391 146.164 32.3184 145.555 32.3184C144.965 32.3184 144.518 32.541 144.213 32.9863C143.912 33.4316 143.76 34.0879 143.756 34.9551V36.4844C143.756 37.3555 143.906 38.0195 144.207 38.4766C144.512 38.9336 144.965 39.1621 145.566 39.1621C146.168 39.1621 146.613 38.9512 146.902 38.5293C147.191 38.1074 147.342 37.4609 147.354 36.5898V34.9902ZM156.833 36.4844C156.833 37.6484 156.585 38.5449 156.089 39.1738C155.593 39.8027 154.887 40.1172 153.973 40.1172C153.095 40.1172 152.399 39.8125 151.887 39.2031C151.38 38.5898 151.116 37.7246 151.096 36.6074V35.002C151.096 33.8613 151.348 32.9688 151.852 32.3242C152.356 31.6758 153.059 31.3516 153.962 31.3516C154.86 31.3516 155.559 31.6621 156.059 32.2832C156.563 32.9004 156.821 33.7832 156.833 34.9316V36.4844ZM155.761 34.9902C155.761 34.0879 155.612 33.418 155.315 32.9805C155.022 32.5391 154.571 32.3184 153.962 32.3184C153.372 32.3184 152.925 32.541 152.62 32.9863C152.319 33.4316 152.167 34.0879 152.163 34.9551V36.4844C152.163 37.3555 152.313 38.0195 152.614 38.4766C152.919 38.9336 153.372 39.1621 153.973 39.1621C154.575 39.1621 155.02 38.9512 155.309 38.5293C155.598 38.1074 155.749 37.4609 155.761 36.5898V34.9902ZM160.769 39.0801H164.115V40H159.691V31.4688H160.769V39.0801Z" fill="black"/>
</svg>
